<?xml version="1.0" standalone="no"?>
<!DOCTYPE svg PUBLIC "-//W3C//DTD SVG 20010904//EN"
 "http://www.w3.org/TR/2001/REC-SVG-20010904/DTD/svg10.dtd">
<svg version="1.0" xmlns="http://www.w3.org/2000/svg"
 width="700.000000pt" height="700.000000pt" viewBox="0 0 700.000000 700.000000"
 preserveAspectRatio="xMidYMid meet">
<metadata>
Created by potrace 1.14, written by Peter Selinger 2001-2017
</metadata>
<g transform="translate(0.000000,700.000000) scale(0.100000,-0.100000)"
fill="#000000" stroke="none">
<path d="M4337 5834 c-1 -1 -60 -4 -130 -8 -71 -3 -131 -8 -135 -10 -4 -2 -32
-7 -62 -11 -108 -13 -362 -78 -445 -114 -11 -5 -56 -23 -100 -41 -308 -124
-611 -343 -860 -624 l-61 -68 -229 0 c-287 -1 -399 -12 -569 -54 -121 -30
-227 -66 -315 -107 -36 -17 -68 -31 -71 -32 -15 -3 -105 -54 -180 -101 -144
-90 -292 -218 -421 -364 -253 -288 -416 -670 -454 -1065 -6 -62 -6 -299 0
-340 2 -16 6 -52 9 -80 15 -134 59 -304 113 -440 101 -253 229 -450 418 -641
110 -110 159 -153 280 -236 275 -192 649 -317 979 -328 181 -6 2348 -3 2431 4
135 10 171 15 282 37 546 108 1025 399 1375 835 63 79 183 254 201 294 4 8 19
35 33 60 51 88 161 352 179 430 2 8 13 51 25 95 11 44 22 91 25 105 2 14 11
63 19 110 39 227 37 503 -5 746 -55 320 -148 562 -332 869 -40 66 -160 224
-232 303 -376 416 -859 671 -1435 756 -66 10 -326 25 -333 20z m263 -599 c19
-3 73 -13 120 -22 432 -78 857 -367 1112 -754 126 -192 235 -470 264 -674 3
-27 9 -59 11 -70 12 -52 9 -347 -4 -435 -63 -430 -287 -822 -638 -1117 -141
-119 -362 -247 -530 -307 -84 -30 -197 -55 -320 -72 -27 -3 -59 -8 -70 -10
-11 -3 -54 -8 -95 -12 -100 -9 -2381 -9 -2445 1 -62 9 -214 46 -234 57 -9 5
-47 20 -86 35 -38 15 -108 49 -155 77 -333 199 -542 495 -625 883 -20 91 -27
320 -14 411 5 32 11 70 13 84 10 65 61 222 100 305 80 171 215 344 368 472
128 107 360 220 518 252 92 19 103 21 160 26 118 12 140 13 145 6 2 -4 -14
-60 -35 -124 -77 -230 -114 -439 -124 -704 l-2 -43 293 0 293 0 1 53 c4 233
70 499 176 712 43 86 89 169 105 190 4 6 36 48 70 95 78 107 236 266 352 353
242 180 562 308 834 333 37 4 69 8 71 10 6 5 334 -4 371 -11z"/>
</g>
</svg>
