<svg width="25" height="41" viewBox="0 0 25 41" fill="none" xmlns="http://www.w3.org/2000/svg">
<g opacity="0.5" clip-path="url(#clip0_1381_36)">
<path d="M6.3291 5.28601H18.9541V19.786H6.3291V5.28601Z" fill="white"/>
<path d="M12.5938 1.323C6.0208 1.323 0.549805 7.014 0.549805 13.189C0.549805 15.967 2.1138 19.497 3.2438 21.935L12.5498 39.807L21.8118 21.935C22.9418 19.497 24.5498 16.144 24.5498 13.189C24.5498 7.014 19.1668 1.323 12.5938 1.323V1.323ZM12.5938 8.478C15.1778 8.495 17.2728 10.6 17.2728 13.188C17.2728 15.776 15.1778 17.851 12.5938 17.867C10.0098 17.85 7.9148 15.777 7.9148 13.188C7.9148 10.6 10.0098 8.495 12.5938 8.478V8.478Z" fill="url(#paint0_linear_1381_36)" stroke="url(#paint1_linear_1381_36)" stroke-width="1.1" stroke-linecap="round"/>
<path d="M12.5811 2.43005C6.63707 2.43005 1.64307 7.64905 1.64307 13.1801C1.64307 15.5391 3.08607 19.0121 4.20607 21.4301L4.23707 21.4611L12.5501 37.4301L20.8001 21.4611L20.8311 21.4301C21.9661 18.9821 23.4561 15.7241 23.4561 13.1801C23.4561 7.64205 18.5251 2.43005 12.5811 2.43005V2.43005ZM12.5811 7.39905C15.7491 7.42005 18.3621 10.0001 18.3621 13.1801C18.3621 16.3601 15.7491 18.9411 12.5811 18.9611C9.41307 18.9411 6.83107 16.3511 6.83107 13.1801C6.83107 10.0081 9.41307 7.41905 12.5811 7.39905V7.39905Z" stroke="white" stroke-opacity="0.122" stroke-width="1.1" stroke-linecap="round"/>
</g>
<defs>
<linearGradient id="paint0_linear_1381_36" x1="-0.000196367" y1="38.71" x2="-0.000196367" y2="1.144" gradientUnits="userSpaceOnUse">
<stop stop-color="#126FC6"/>
<stop offset="1" stop-color="#4C9CD1"/>
</linearGradient>
<linearGradient id="paint1_linear_1381_36" x1="-0.000194977" y1="20.197" x2="-0.000194977" y2="1.144" gradientUnits="userSpaceOnUse">
<stop stop-color="#2E6C97"/>
<stop offset="1" stop-color="#3883B7"/>
</linearGradient>
<clipPath id="clip0_1381_36">
<rect width="25" height="41" fill="white"/>
</clipPath>
</defs>
</svg>
