<svg width="100" height="100" viewBox="0 0 100 100" fill="none" xmlns="http://www.w3.org/2000/svg">
<path fill-rule="evenodd" clip-rule="evenodd" d="M61.408 83.3183C61.7436 83.3283 62.0806 83.3333 62.4187 83.3333C80.8281 83.3333 95.752 68.4094 95.752 50C95.752 31.5905 80.8281 16.6666 62.4187 16.6666C51.8921 16.6666 42.5051 21.5461 36.3963 29.1666H31.3304C16.3727 29.1666 4.24707 41.2922 4.24707 56.25C4.24707 71.2077 16.3727 83.3333 31.3304 83.3333H60.4971C60.8019 83.3333 61.1056 83.3283 61.408 83.3183ZM69.5467 73.8374C79.3391 70.6341 87.4187 61.173 87.4187 50C87.4187 36.1928 76.2258 25 62.4187 25C48.6115 25 37.4187 36.1928 37.4187 50H29.0853C29.0853 45.5795 29.9458 41.3601 31.5083 37.5H31.3304C20.9751 37.5 12.5804 45.8946 12.5804 56.25C12.5804 66.6053 20.9751 75 31.3304 75H60.4971C62.7877 75 66.2666 74.5892 69.5467 73.8374Z" fill="#59981A"/>
</svg>
